<?xml version="1.0" standalone="no"?>
<!DOCTYPE svg PUBLIC "-//W3C//DTD SVG 20010904//EN"
 "http://www.w3.org/TR/2001/REC-SVG-20010904/DTD/svg10.dtd">
<svg version="1.0" xmlns="http://www.w3.org/2000/svg"
 width="512.000000pt" height="512.000000pt" viewBox="0 0 512.000000 512.000000"
 preserveAspectRatio="xMidYMid meet">

<g transform="translate(0.000000,512.000000) scale(0.100000,-0.100000)"
fill="#000000" stroke="none">
<path d="M1127 4679 c-60 -14 -117 -48 -166 -98 -68 -70 -92 -126 -99 -227
l-5 -84 1703 0 1703 0 -5 83 c-3 61 -11 95 -29 131 -34 69 -108 142 -176 174
l-58 27 -1415 2 c-805 0 -1431 -3 -1453 -8z"/>
<path d="M1523 3426 c-186 -60 -299 -246 -264 -433 16 -87 52 -153 117 -212
160 -147 387 -141 533 14 79 83 105 149 106 260 0 85 -2 96 -38 167 -43 88
-102 147 -187 186 -67 31 -199 40 -267 18z"/>
<path d="M3363 3422 c-105 -37 -176 -104 -227 -212 -28 -58 -31 -75 -31 -155
0 -76 5 -99 27 -148 75 -160 252 -258 413 -227 129 25 251 123 296 238 17 42
23 79 23 143 1 79 -2 90 -37 161 -43 88 -99 143 -186 184 -75 36 -202 43 -278
16z"/>
<path d="M355 836 c-83 -32 -136 -79 -176 -156 -23 -43 -24 -55 -24 -240 0
-179 2 -198 20 -230 13 -22 34 -39 55 -47 52 -18 4610 -17 4660 1 21 8 43 26
55 47 18 31 20 52 20 229 0 187 -1 197 -25 243 -33 65 -95 120 -164 146 -56
21 -65 21 -844 21 l-787 0 -245 -246 c-135 -135 -258 -252 -274 -261 -37 -19
-96 -19 -133 1 -15 8 -138 125 -273 260 l-245 246 -795 -1 c-576 -1 -803 -5
-825 -13z"/>
</g>
</svg>
